<svg width="120" height="120" viewBox="0 0 120 120" fill="none" xmlns="http://www.w3.org/2000/svg">
<g clip-path="url(#clip0_75_2)">
<path d="M60.392 106.792C36.712 106.792 20.712 93.992 20.328 74.792H36.584C36.968 84.776 46.44 91.432 60.392 91.432C73.576 91.432 82.408 86.568 82.408 79.4C82.408 61.48 25.192 72.36 25.192 41.256C25.192 25.768 39.272 15.4 60.392 15.4C78.056 15.4 92.52 25.512 96.616 40.616L80.872 44.584C78.824 36.264 70.632 30.76 60.392 30.76C49.512 30.76 42.216 34.984 42.216 41.256C42.216 54.824 99.432 47.272 99.432 79.4C99.432 95.784 83.816 106.792 60.392 106.792Z" fill="#FFFCFC"/>
</g>
<defs>
<clipPath id="clip0_75_2">
<rect width="120" height="120" fill="white"/>
</clipPath>
</defs>
</svg>
